# This file uses centimeters as units for non-parametric coordinates.

mtllib Desk_1.mtl
g default
v -189.297470 -2.916425 7.149649
v -189.297470 85.572151 7.149649
v -196.283188 -2.916425 7.149649
v -196.283188 85.572151 7.149649
v -196.283188 -2.916425 0.163934
v -196.283188 85.572151 0.163934
v -189.297470 -2.916425 0.163934
v -189.297470 85.572151 0.163934
v -199.431442 85.036079 94.968109
v -26.847687 85.036079 94.968109
v -199.431442 87.731529 94.968109
v -26.847687 87.731529 94.968109
v -199.431442 87.731529 -2.452191
v -26.847687 87.731529 -2.452191
v -199.431442 85.036079 -2.452191
v -26.847687 85.036079 -2.452191
v -30.853180 -2.916425 7.149649
v -30.853180 85.572151 7.149649
v -37.838898 -2.916425 7.149649
v -37.838898 85.572151 7.149649
v -37.838898 -2.916425 0.163934
v -37.838898 85.572151 0.163934
v -30.853180 -2.916425 0.163934
v -30.853180 85.572151 0.163934
v -189.297470 -2.916425 91.691666
v -189.297470 85.572151 91.691666
v -196.283188 -2.916425 91.691666
v -196.283188 85.572151 91.691666
v -196.283188 -2.916425 84.705948
v -196.283188 85.572151 84.705948
v -189.297470 -2.916425 84.705948
v -189.297470 85.572151 84.705948
v -30.853180 -2.916425 91.691666
v -30.853180 85.572151 91.691666
v -37.838898 -2.916425 91.691666
v -37.838898 85.572151 91.691666
v -37.838898 -2.916425 84.705948
v -37.838898 85.572151 84.705948
v -30.853180 -2.916425 84.705948
v -30.853180 85.572151 84.705948
v -189.506226 9.703791 4.484344
v -189.506226 9.703792 87.684395
v -196.074448 9.703791 4.484344
v -196.074448 9.703792 87.684395
v -196.074448 16.272003 4.484344
v -196.074448 16.272007 87.684395
v -189.506226 16.272003 4.484344
v -189.506226 16.272007 87.684395
v -31.061932 9.640178 4.360547
v -31.061932 9.640178 87.560600
v -37.630150 9.640178 4.360547
v -37.630150 9.640178 87.560600
v -37.630150 16.208391 4.360547
v -37.630150 16.208393 87.560593
v -31.061932 16.208391 4.360547
v -31.061932 16.208393 87.560593
v -191.034470 9.788551 65.519341
v -33.734482 9.788550 65.519341
v -191.034470 9.788551 71.790810
v -33.734482 9.788550 71.790810
v -191.034470 16.060024 71.790810
v -33.734482 16.060022 71.790810
v -191.034470 16.060024 65.519341
v -33.734482 16.060022 65.519341
v -191.034470 9.788551 19.799757
v -33.734482 9.788550 19.799757
v -191.034470 9.788551 26.071228
v -33.734482 9.788550 26.071228
v -191.034470 16.060024 26.071226
v -33.734482 16.060022 26.071226
v -191.034470 16.060024 19.799755
v -33.734482 16.060022 19.799755
v -190.167633 81.571037 90.754570
v -35.770538 81.571037 90.754570
v -190.167633 85.688972 90.754570
v -35.770538 85.688972 90.754570
v -190.167633 85.688972 86.636635
v -35.770538 85.688972 86.636635
v -190.167633 81.571037 86.636635
v -35.770538 81.571037 86.636635
v -190.167633 81.571037 5.874260
v -35.770538 81.571037 5.874260
v -190.167633 85.688972 5.874260
v -35.770538 85.688972 5.874260
v -190.167633 85.688972 1.756325
v -35.770538 85.688972 1.756325
v -190.167633 81.571037 1.756325
v -35.770538 81.571037 1.756325
v -36.522091 81.571037 5.324547
v -36.522091 81.571037 89.423721
v -36.522091 85.688972 5.324547
v -36.522091 85.688972 89.423721
v -32.404156 85.688972 5.324547
v -32.404156 85.688972 89.423721
v -32.404156 81.571037 5.324547
v -32.404156 81.571037 89.423721
v -194.377747 81.571037 5.324547
v -194.377747 81.571037 89.423721
v -194.377747 85.688972 5.324547
v -194.377747 85.688972 89.423721
v -190.259796 85.688972 5.324547
v -190.259796 85.688972 89.423721
v -190.259796 81.571037 5.324547
v -190.259796 81.571037 89.423721
vt 0.028888 0.307354
vt 0.028888 0.026783
vt 0.051037 0.026783
vt 0.051037 0.307354
vt 0.073187 0.307354
vt 0.073187 0.026783
vt 0.095337 0.026783
vt 0.095337 0.307354
vt 0.051037 0.329503
vt 0.028888 0.329503
vt 0.117486 0.026783
vt 0.117486 0.307354
vt 0.559822 0.995491
vt 0.012602 0.995491
vt 0.012602 0.986944
vt 0.559822 0.986944
vt 0.012602 0.678049
vt 0.559821 0.678049
vt 0.012602 0.669502
vt 0.559822 0.669502
vt 0.012602 0.360607
vt 0.559822 0.360607
vt 0.004056 0.986944
vt 0.004056 0.678049
vt 0.568368 0.678049
vt 0.568369 0.986944
vt 0.957588 0.304275
vt 0.957588 0.023703
vt 0.979738 0.023703
vt 0.979738 0.304275
vt 0.891139 0.304275
vt 0.891139 0.023703
vt 0.913289 0.023703
vt 0.913289 0.304275
vt 0.935439 0.023703
vt 0.935439 0.304275
vt 0.913289 0.326424
vt 0.891139 0.326424
vt 0.960407 0.958696
vt 0.960407 0.678125
vt 0.982557 0.678125
vt 0.982557 0.958696
vt 0.893958 0.958696
vt 0.893958 0.678125
vt 0.916108 0.678125
vt 0.916108 0.958696
vt 0.938258 0.678125
vt 0.938258 0.958696
vt 0.916108 0.980846
vt 0.893958 0.980846
vt 0.958033 0.633839
vt 0.958033 0.353268
vt 0.980183 0.353268
vt 0.980183 0.633839
vt 0.891584 0.633839
vt 0.891584 0.353268
vt 0.913734 0.353268
vt 0.913734 0.633839
vt 0.935883 0.353268
vt 0.935883 0.633839
vt 0.913734 0.655989
vt 0.891584 0.655989
vt 0.706496 0.519276
vt 0.706496 0.238705
vt 0.728646 0.238705
vt 0.728646 0.519276
vt 0.640047 0.519276
vt 0.640047 0.238705
vt 0.662197 0.238705
vt 0.662197 0.519276
vt 0.684346 0.238705
vt 0.684346 0.519276
vt 0.662197 0.541426
vt 0.640047 0.541426
vt 0.838543 0.519276
vt 0.838543 0.238706
vt 0.860693 0.238706
vt 0.860693 0.519276
vt 0.772094 0.519276
vt 0.772094 0.238706
vt 0.794244 0.238706
vt 0.794244 0.519276
vt 0.816393 0.238706
vt 0.816393 0.519276
vt 0.794244 0.541426
vt 0.772094 0.541426
vt 0.840356 0.946942
vt 0.840356 0.569216
vt 0.870175 0.569216
vt 0.870175 0.946942
vt 0.750897 0.946942
vt 0.750897 0.569216
vt 0.780716 0.569216
vt 0.780716 0.946942
vt 0.810536 0.569216
vt 0.810536 0.946942
vt 0.780716 0.976762
vt 0.750897 0.976762
vt 0.688521 0.950081
vt 0.688521 0.572355
vt 0.718341 0.572355
vt 0.718341 0.950081
vt 0.599062 0.950081
vt 0.599062 0.572355
vt 0.628882 0.572355
vt 0.628882 0.950081
vt 0.658702 0.572355
vt 0.658702 0.950081
vt 0.628882 0.979900
vt 0.599062 0.979901
vt 0.645975 0.092346
vt 0.156427 0.092346
vt 0.156427 0.079289
vt 0.645975 0.079289
vt 0.645975 0.118459
vt 0.156427 0.118459
vt 0.156427 0.105402
vt 0.645975 0.105402
vt 0.649857 0.168703
vt 0.160309 0.168703
vt 0.160309 0.155646
vt 0.649857 0.155646
vt 0.649857 0.194816
vt 0.160309 0.194816
vt 0.160309 0.181759
vt 0.649857 0.181759
vt 0.523851 0.241531
vt 0.162548 0.241531
vt 0.162548 0.231895
vt 0.523851 0.231895
vt 0.523851 0.260804
vt 0.162548 0.260804
vt 0.162548 0.251168
vt 0.523851 0.251168
vt 0.526433 0.306068
vt 0.165129 0.306068
vt 0.165129 0.296432
vt 0.526433 0.296432
vt 0.526433 0.325341
vt 0.165129 0.325341
vt 0.165129 0.315704
vt 0.526433 0.315704
vn 0.706007 -0.055736 0.706008
vn 0.707107 0.000000 0.707107
vn -0.707107 0.000000 0.707107
vn -0.706007 -0.055736 0.706008
vn -0.707107 0.000000 -0.707107
vn -0.706007 -0.055736 -0.706008
vn 0.707107 0.000000 -0.707107
vn 0.706007 -0.055736 -0.706008
vn 0.000000 0.000000 1.000000
vn 0.000000 0.000000 1.000000
vn 0.000000 0.000000 1.000000
vn 0.000000 0.000000 1.000000
vn 0.000000 1.000000 0.000000
vn 0.000000 1.000000 0.000000
vn 0.000000 1.000000 0.000000
vn 0.000000 1.000000 0.000000
vn 0.000000 0.000000 -1.000000
vn 0.000000 0.000000 -1.000000
vn 0.000000 0.000000 -1.000000
vn 0.000000 0.000000 -1.000000
vn 0.000000 -1.000000 0.000000
vn 0.000000 -1.000000 0.000000
vn 0.000000 -1.000000 0.000000
vn 0.000000 -1.000000 0.000000
vn 1.000000 0.000000 0.000000
vn 1.000000 0.000000 0.000000
vn 1.000000 0.000000 0.000000
vn 1.000000 0.000000 0.000000
vn -1.000000 0.000000 0.000000
vn -1.000000 0.000000 0.000000
vn -1.000000 0.000000 0.000000
vn -1.000000 0.000000 0.000000
vn 0.706007 -0.055736 0.706008
vn 0.707107 0.000000 0.707107
vn -0.707107 0.000000 0.707107
vn -0.706007 -0.055736 0.706008
vn -0.707107 0.000000 -0.707107
vn -0.706007 -0.055736 -0.706008
vn 0.707107 0.000000 -0.707107
vn 0.706007 -0.055736 -0.706008
vn 0.706008 -0.055736 0.706008
vn 0.707107 0.000000 0.707107
vn -0.707107 0.000000 0.707107
vn -0.706008 -0.055736 0.706008
vn -0.707107 0.000000 -0.707107
vn -0.706008 -0.055736 -0.706008
vn 0.707107 0.000000 -0.707107
vn 0.706008 -0.055736 -0.706008
vn 0.706008 -0.055736 0.706008
vn 0.707107 0.000000 0.707107
vn -0.707107 0.000000 0.707107
vn -0.706008 -0.055736 0.706008
vn -0.707107 0.000000 -0.707107
vn -0.706008 -0.055736 -0.706008
vn 0.707107 0.000000 -0.707107
vn 0.706008 -0.055736 -0.706008
vn 0.706007 -0.706008 -0.055736
vn 0.707106 -0.707107 0.000000
vn -0.707106 -0.707107 0.000000
vn -0.706007 -0.706008 -0.055736
vn -0.707106 0.707107 -0.000000
vn -0.706007 0.706008 -0.055736
vn 0.707106 0.707107 -0.000000
vn 0.706007 0.706008 -0.055736
vn 0.706007 -0.706008 -0.055736
vn 0.707106 -0.707107 0.000000
vn -0.707106 -0.707107 0.000000
vn -0.706007 -0.706008 -0.055736
vn -0.707107 0.707107 -0.000000
vn -0.706007 0.706008 -0.055736
vn 0.707107 0.707107 -0.000000
vn 0.706007 0.706008 -0.055736
vn -0.028181 -0.706826 -0.706826
vn -0.000000 -0.707107 -0.707107
vn 0.000000 -0.707107 0.707107
vn -0.028181 -0.706826 0.706826
vn 0.000000 0.707107 0.707107
vn -0.028181 0.706826 0.706826
vn 0.000000 0.707107 -0.707107
vn -0.028181 0.706826 -0.706826
vn -0.028181 -0.706826 -0.706826
vn -0.000000 -0.707107 -0.707107
vn 0.000000 -0.707107 0.707107
vn -0.028181 -0.706826 0.706826
vn 0.000000 0.707107 0.707107
vn -0.028181 0.706826 0.706826
vn 0.000000 0.707107 -0.707107
vn -0.028181 0.706826 -0.706826
vn 0.000000 -0.707107 0.707107
vn 0.000000 -0.707107 0.707107
vn 0.000000 0.000000 1.000000
vn 0.000000 0.000000 1.000000
vn 0.000000 0.000000 -1.000000
vn 0.000000 0.000000 -1.000000
vn 0.000000 -0.707107 -0.707107
vn 0.000000 -0.707107 -0.707107
vn 0.000000 -0.707107 0.707107
vn 0.000000 -0.707107 0.707107
vn 0.000000 0.000000 1.000000
vn 0.000000 0.000000 1.000000
vn 0.000000 0.000000 -1.000000
vn 0.000000 0.000000 -1.000000
vn 0.000000 -0.707107 -0.707107
vn 0.000000 -0.707107 -0.707107
vn -0.707107 -0.707107 0.000000
vn -0.707107 -0.707107 0.000000
vn -1.000000 0.000000 0.000000
vn -1.000000 0.000000 0.000000
vn 1.000000 0.000000 0.000000
vn 1.000000 0.000000 0.000000
vn 0.707107 -0.707107 0.000000
vn 0.707107 -0.707107 0.000000
vn -0.707105 -0.707108 0.000000
vn -0.707105 -0.707108 0.000000
vn -1.000000 0.000000 0.000000
vn -1.000000 0.000000 0.000000
vn 1.000000 0.000000 0.000000
vn 1.000000 0.000000 0.000000
vn 0.707105 -0.707108 0.000000
vn 0.707105 -0.707108 0.000000
s 1
g Table_LP2
usemtl lambert2SG
f 1/8/1 2/7/2 4/11/3 3/12/4
f 3/1/4 4/2/3 6/3/5 5/4/6
f 5/4/6 6/3/5 8/6/7 7/5/8
f 7/5/8 8/6/7 2/7/2 1/8/1
f 7/9/8 1/10/1 3/1/4 5/4/6
s off
f 9/13/9 10/14/10 12/15/11 11/16/12
f 11/16/13 12/15/14 14/17/15 13/18/16
f 13/18/17 14/17/18 16/19/19 15/20/20
f 15/20/21 16/19/22 10/21/23 9/22/24
f 10/23/25 16/24/26 14/17/27 12/15/28
f 15/25/29 9/26/30 11/16/31 13/18/32
s 2
f 17/27/33 18/28/34 20/29/35 19/30/36
f 19/31/36 20/32/35 22/33/37 21/34/38
f 21/34/38 22/33/37 24/35/39 23/36/40
f 23/36/40 24/35/39 18/28/34 17/27/33
f 23/37/40 17/38/33 19/31/36 21/34/38
s 3
f 25/39/41 26/40/42 28/41/43 27/42/44
f 27/43/44 28/44/43 30/45/45 29/46/46
f 29/46/46 30/45/45 32/47/47 31/48/48
f 31/48/48 32/47/47 26/40/42 25/39/41
f 31/49/48 25/50/41 27/43/44 29/46/46
s 4
f 33/51/49 34/52/50 36/53/51 35/54/52
f 35/55/52 36/56/51 38/57/53 37/58/54
f 37/58/54 38/57/53 40/59/55 39/60/56
f 39/60/56 40/59/55 34/52/50 33/51/49
f 39/61/56 33/62/49 35/55/52 37/58/54
s 5
f 41/63/57 42/64/58 44/65/59 43/66/60
f 43/67/60 44/68/59 46/69/61 45/70/62
f 45/70/62 46/69/61 48/71/63 47/72/64
f 47/72/64 48/71/63 42/64/58 41/63/57
f 47/73/64 41/74/57 43/67/60 45/70/62
s 6
f 49/75/65 50/76/66 52/77/67 51/78/68
f 51/79/68 52/80/67 54/81/69 53/82/70
f 53/82/70 54/81/69 56/83/71 55/84/72
f 55/84/72 56/83/71 50/76/66 49/75/65
f 55/85/72 49/86/65 51/79/68 53/82/70
s 7
f 57/87/73 58/88/74 60/89/75 59/90/76
f 59/91/76 60/92/75 62/93/77 61/94/78
f 61/94/78 62/93/77 64/95/79 63/96/80
f 63/96/80 64/95/79 58/88/74 57/87/73
f 63/97/80 57/98/73 59/91/76 61/94/78
s 8
f 65/99/81 66/100/82 68/101/83 67/102/84
f 67/103/84 68/104/83 70/105/85 69/106/86
f 69/106/86 70/105/85 72/107/87 71/108/88
f 71/108/88 72/107/87 66/100/82 65/99/81
f 71/109/88 65/110/81 67/103/84 69/106/86
s 9
f 73/111/89 74/112/90 76/113/91 75/114/92
f 77/115/93 78/116/94 80/117/95 79/118/96
f 79/118/96 80/117/95 74/112/90 73/111/89
s 10
f 81/119/97 82/120/98 84/121/99 83/122/100
f 85/123/101 86/124/102 88/125/103 87/126/104
f 87/126/104 88/125/103 82/120/98 81/119/97
s 11
f 89/127/105 90/128/106 92/129/107 91/130/108
f 93/131/109 94/132/110 96/133/111 95/134/112
f 95/134/112 96/133/111 90/128/106 89/127/105
s 12
f 97/135/113 98/136/114 100/137/115 99/138/116
f 101/139/117 102/140/118 104/141/119 103/142/120
f 103/142/120 104/141/119 98/136/114 97/135/113
