# This file uses centimeters as units for non-parametric coordinates.

mtllib Table_1_2.mtl
g default
v -76.157906 0.000000 -39.108307
v -76.157906 88.488579 -39.108307
v -83.143623 0.000000 -39.108307
v -83.143623 88.488579 -39.108307
v -83.143623 0.000000 -46.094025
v -83.143623 88.488579 -46.094025
v -76.157906 0.000000 -46.094025
v -76.157906 88.488579 -46.094025
v -86.291878 87.952507 48.710152
v 86.291878 87.952507 48.710152
v -86.291878 90.647957 48.710152
v 86.291878 90.647957 48.710152
v -86.291878 90.647957 -48.710148
v 86.291878 90.647957 -48.710148
v -86.291878 87.952507 -48.710148
v 86.291878 87.952507 -48.710148
v 82.286385 0.000000 -39.108307
v 82.286385 88.488579 -39.108307
v 75.300667 0.000000 -39.108307
v 75.300667 88.488579 -39.108307
v 75.300667 0.000000 -46.094025
v 75.300667 88.488579 -46.094025
v 82.286385 0.000000 -46.094025
v 82.286385 88.488579 -46.094025
v -76.157906 0.000000 45.433708
v -76.157906 88.488579 45.433708
v -83.143623 0.000000 45.433708
v -83.143623 88.488579 45.433708
v -83.143623 0.000000 38.447990
v -83.143623 88.488579 38.447990
v -76.157906 0.000000 38.447990
v -76.157906 88.488579 38.447990
v 82.286385 0.000000 45.433708
v 82.286385 88.488579 45.433708
v 75.300667 0.000000 45.433708
v 75.300667 88.488579 45.433708
v 75.300667 0.000000 38.447990
v 75.300667 88.488579 38.447990
v 82.286385 0.000000 38.447990
v 82.286385 88.488579 38.447990
v -76.366661 12.620215 -41.773613
v -76.366661 12.620216 41.426437
v -82.934883 12.620215 -41.773613
v -82.934883 12.620216 41.426437
v -82.934883 19.188429 -41.773613
v -82.934883 19.188433 41.426437
v -76.366661 19.188429 -41.773613
v -76.366661 19.188433 41.426437
v 82.077637 12.556602 -41.897411
v 82.077637 12.556602 41.302643
v 75.509415 12.556602 -41.897411
v 75.509415 12.556602 41.302643
v 75.509415 19.124817 -41.897411
v 75.509415 19.124819 41.302635
v 82.077637 19.124817 -41.897411
v 82.077637 19.124819 41.302635
v -77.894905 12.704976 19.261383
v 79.405083 12.704975 19.261383
v -77.894905 12.704976 25.532852
v 79.405083 12.704975 25.532852
v -77.894905 18.976450 25.532852
v 79.405083 18.976448 25.532852
v -77.894905 18.976450 19.261383
v 79.405083 18.976448 19.261383
v -77.894905 12.704976 -26.458200
v 79.405083 12.704975 -26.458200
v -77.894905 12.704976 -20.186729
v 79.405083 12.704975 -20.186729
v -77.894905 18.976450 -20.186731
v 79.405083 18.976448 -20.186731
v -77.894905 18.976450 -26.458202
v 79.405083 18.976448 -26.458202
v -77.028069 84.487465 44.496613
v 77.369026 84.487465 44.496613
v -77.028069 88.605400 44.496613
v 77.369026 88.605400 44.496613
v -77.028069 88.605400 40.378677
v 77.369026 88.605400 40.378677
v -77.028069 84.487465 40.378677
v 77.369026 84.487465 40.378677
v -77.028069 84.487465 -40.383698
v 77.369026 84.487465 -40.383698
v -77.028069 88.605400 -40.383698
v 77.369026 88.605400 -40.383698
v -77.028069 88.605400 -44.501633
v 77.369026 88.605400 -44.501633
v -77.028069 84.487465 -44.501633
v 77.369026 84.487465 -44.501633
v 76.617477 84.487465 -40.933411
v 76.617477 84.487465 43.165764
v 76.617477 88.605400 -40.933411
v 76.617477 88.605400 43.165764
v 80.735413 88.605400 -40.933411
v 80.735413 88.605400 43.165764
v 80.735413 84.487465 -40.933411
v 80.735413 84.487465 43.165764
v -81.238182 84.487465 -40.933411
v -81.238182 84.487465 43.165764
v -81.238182 88.605400 -40.933411
v -81.238182 88.605400 43.165764
v -77.120232 88.605400 -40.933411
v -77.120232 88.605400 43.165764
v -77.120232 84.487465 -40.933411
v -77.120232 84.487465 43.165764
vt 0.095337 0.307354
vt 0.095337 0.026783
vt 0.117486 0.026783
vt 0.117486 0.307354
vt 0.028888 0.307354
vt 0.028888 0.026783
vt 0.051037 0.026783
vt 0.051037 0.307354
vt 0.073187 0.026783
vt 0.073187 0.307354
vt 0.051037 0.329503
vt 0.028888 0.329503
vt 0.559822 0.995491
vt 0.012602 0.995491
vt 0.012602 0.986944
vt 0.559822 0.986944
vt 0.012602 0.678049
vt 0.559821 0.678049
vt 0.012602 0.669502
vt 0.559822 0.669502
vt 0.012602 0.360607
vt 0.559822 0.360607
vt 0.004056 0.986944
vt 0.004056 0.678049
vt 0.568368 0.678049
vt 0.568369 0.986944
vt 0.957588 0.304275
vt 0.957588 0.023703
vt 0.979738 0.023703
vt 0.979738 0.304275
vt 0.891139 0.304275
vt 0.891139 0.023703
vt 0.913289 0.023703
vt 0.913289 0.304275
vt 0.935439 0.023703
vt 0.935439 0.304275
vt 0.913289 0.326424
vt 0.891139 0.326424
vt 0.960407 0.958696
vt 0.960407 0.678125
vt 0.982557 0.678125
vt 0.982557 0.958696
vt 0.893958 0.958696
vt 0.893958 0.678125
vt 0.916108 0.678125
vt 0.916108 0.958696
vt 0.938258 0.678125
vt 0.938258 0.958696
vt 0.916108 0.980846
vt 0.893958 0.980846
vt 0.958033 0.633839
vt 0.958033 0.353268
vt 0.980183 0.353268
vt 0.980183 0.633839
vt 0.891584 0.633839
vt 0.891584 0.353268
vt 0.913734 0.353268
vt 0.913734 0.633839
vt 0.935883 0.353268
vt 0.935883 0.633839
vt 0.913734 0.655989
vt 0.891584 0.655989
vt 0.706496 0.519276
vt 0.706496 0.238705
vt 0.728646 0.238705
vt 0.728646 0.519276
vt 0.640047 0.519276
vt 0.640047 0.238705
vt 0.662197 0.238705
vt 0.662197 0.519276
vt 0.684346 0.238705
vt 0.684346 0.519276
vt 0.662197 0.541426
vt 0.640047 0.541426
vt 0.838543 0.519276
vt 0.838543 0.238706
vt 0.860693 0.238706
vt 0.860693 0.519276
vt 0.772094 0.519276
vt 0.772094 0.238706
vt 0.794244 0.238706
vt 0.794244 0.519276
vt 0.816393 0.238706
vt 0.816393 0.519276
vt 0.794244 0.541426
vt 0.772094 0.541426
vt 0.840356 0.946942
vt 0.840356 0.569216
vt 0.870175 0.569216
vt 0.870175 0.946942
vt 0.750897 0.946942
vt 0.750897 0.569216
vt 0.780716 0.569216
vt 0.780716 0.946942
vt 0.810536 0.569216
vt 0.810536 0.946942
vt 0.780716 0.976762
vt 0.750897 0.976762
vt 0.688521 0.950081
vt 0.688521 0.572355
vt 0.718341 0.572355
vt 0.718341 0.950081
vt 0.599062 0.950081
vt 0.599062 0.572355
vt 0.628882 0.572355
vt 0.628882 0.950081
vt 0.658702 0.572355
vt 0.658702 0.950081
vt 0.628882 0.979900
vt 0.599062 0.979901
vt 0.645975 0.092346
vt 0.156427 0.092346
vt 0.156427 0.079289
vt 0.645975 0.079289
vt 0.645975 0.118459
vt 0.156427 0.118459
vt 0.156427 0.105402
vt 0.645975 0.105402
vt 0.649857 0.168703
vt 0.160309 0.168703
vt 0.160309 0.155646
vt 0.649857 0.155646
vt 0.649857 0.194816
vt 0.160309 0.194816
vt 0.160309 0.181759
vt 0.649857 0.181759
vt 0.523851 0.241531
vt 0.162548 0.241531
vt 0.162548 0.231895
vt 0.523851 0.231895
vt 0.523851 0.260804
vt 0.162548 0.260804
vt 0.162548 0.251168
vt 0.523851 0.251168
vt 0.526433 0.306068
vt 0.165129 0.306068
vt 0.165129 0.296432
vt 0.526433 0.296432
vt 0.526433 0.325341
vt 0.165129 0.325341
vt 0.165129 0.315704
vt 0.526433 0.315704
vn 0.706007 -0.055736 0.706008
vn 0.707107 0.000000 0.707107
vn -0.707107 0.000000 0.707107
vn -0.706007 -0.055736 0.706008
vn -0.706007 -0.055736 0.706008
vn -0.707107 0.000000 0.707107
vn -0.707107 0.000000 -0.707107
vn -0.706007 -0.055736 -0.706008
vn -0.706007 -0.055736 -0.706008
vn -0.707107 0.000000 -0.707107
vn 0.707107 0.000000 -0.707107
vn 0.706007 -0.055736 -0.706008
vn 0.706007 -0.055736 -0.706008
vn 0.707107 0.000000 -0.707107
vn 0.707107 0.000000 0.707107
vn 0.706007 -0.055736 0.706008
vn 0.706007 -0.055736 -0.706008
vn 0.706007 -0.055736 0.706008
vn -0.706007 -0.055736 0.706008
vn -0.706007 -0.055736 -0.706008
vn 0.000000 0.000000 1.000000
vn 0.000000 0.000000 1.000000
vn 0.000000 0.000000 1.000000
vn 0.000000 0.000000 1.000000
vn 0.000000 1.000000 0.000000
vn 0.000000 1.000000 0.000000
vn 0.000000 1.000000 0.000000
vn 0.000000 1.000000 0.000000
vn 0.000000 0.000000 -1.000000
vn 0.000000 0.000000 -1.000000
vn 0.000000 0.000000 -1.000000
vn 0.000000 0.000000 -1.000000
vn 0.000000 -1.000000 0.000000
vn 0.000000 -1.000000 0.000000
vn 0.000000 -1.000000 0.000000
vn 0.000000 -1.000000 0.000000
vn 1.000000 0.000000 0.000000
vn 1.000000 0.000000 0.000000
vn 1.000000 0.000000 0.000000
vn 1.000000 0.000000 0.000000
vn -1.000000 0.000000 0.000000
vn -1.000000 0.000000 0.000000
vn -1.000000 0.000000 0.000000
vn -1.000000 0.000000 0.000000
vn 0.706007 -0.055736 0.706008
vn 0.707107 0.000000 0.707107
vn -0.707107 0.000000 0.707107
vn -0.706007 -0.055736 0.706008
vn -0.706007 -0.055736 0.706008
vn -0.707107 0.000000 0.707107
vn -0.707107 0.000000 -0.707107
vn -0.706007 -0.055736 -0.706008
vn -0.706007 -0.055736 -0.706008
vn -0.707107 0.000000 -0.707107
vn 0.707107 0.000000 -0.707107
vn 0.706007 -0.055736 -0.706008
vn 0.706007 -0.055736 -0.706008
vn 0.707107 0.000000 -0.707107
vn 0.707107 0.000000 0.707107
vn 0.706007 -0.055736 0.706008
vn 0.706007 -0.055736 -0.706008
vn 0.706007 -0.055736 0.706008
vn -0.706007 -0.055736 0.706008
vn -0.706007 -0.055736 -0.706008
vn 0.706008 -0.055736 0.706008
vn 0.707107 0.000000 0.707107
vn -0.707107 0.000000 0.707107
vn -0.706008 -0.055736 0.706008
vn -0.706008 -0.055736 0.706008
vn -0.707107 0.000000 0.707107
vn -0.707107 0.000000 -0.707107
vn -0.706008 -0.055736 -0.706008
vn -0.706008 -0.055736 -0.706008
vn -0.707107 0.000000 -0.707107
vn 0.707107 0.000000 -0.707107
vn 0.706008 -0.055736 -0.706008
vn 0.706008 -0.055736 -0.706008
vn 0.707107 0.000000 -0.707107
vn 0.707107 0.000000 0.707107
vn 0.706008 -0.055736 0.706008
vn 0.706008 -0.055736 -0.706008
vn 0.706008 -0.055736 0.706008
vn -0.706008 -0.055736 0.706008
vn -0.706008 -0.055736 -0.706008
vn 0.706008 -0.055736 0.706008
vn 0.707107 0.000000 0.707107
vn -0.707107 0.000000 0.707107
vn -0.706008 -0.055736 0.706008
vn -0.706008 -0.055736 0.706008
vn -0.707107 0.000000 0.707107
vn -0.707107 0.000000 -0.707107
vn -0.706008 -0.055736 -0.706008
vn -0.706008 -0.055736 -0.706008
vn -0.707107 0.000000 -0.707107
vn 0.707107 0.000000 -0.707107
vn 0.706008 -0.055736 -0.706008
vn 0.706008 -0.055736 -0.706008
vn 0.707107 0.000000 -0.707107
vn 0.707107 0.000000 0.707107
vn 0.706008 -0.055736 0.706008
vn 0.706008 -0.055736 -0.706008
vn 0.706008 -0.055736 0.706008
vn -0.706008 -0.055736 0.706008
vn -0.706008 -0.055736 -0.706008
vn 0.706007 -0.706008 -0.055736
vn 0.707106 -0.707107 0.000000
vn -0.707106 -0.707107 0.000000
vn -0.706007 -0.706008 -0.055736
vn -0.706007 -0.706008 -0.055736
vn -0.707106 -0.707107 0.000000
vn -0.707106 0.707107 0.000000
vn -0.706007 0.706008 -0.055736
vn -0.706007 0.706008 -0.055736
vn -0.707106 0.707107 0.000000
vn 0.707106 0.707107 0.000000
vn 0.706007 0.706008 -0.055736
vn 0.706007 0.706008 -0.055736
vn 0.707106 0.707107 0.000000
vn 0.707106 -0.707107 0.000000
vn 0.706007 -0.706008 -0.055736
vn 0.706007 0.706008 -0.055736
vn 0.706007 -0.706008 -0.055736
vn -0.706007 -0.706008 -0.055736
vn -0.706007 0.706008 -0.055736
vn 0.706007 -0.706008 -0.055736
vn 0.707106 -0.707107 0.000000
vn -0.707106 -0.707107 0.000000
vn -0.706007 -0.706008 -0.055736
vn -0.706007 -0.706008 -0.055736
vn -0.707106 -0.707107 0.000000
vn -0.707107 0.707107 0.000000
vn -0.706007 0.706008 -0.055736
vn -0.706007 0.706008 -0.055736
vn -0.707107 0.707107 0.000000
vn 0.707107 0.707107 0.000000
vn 0.706007 0.706008 -0.055736
vn 0.706007 0.706008 -0.055736
vn 0.707107 0.707107 0.000000
vn 0.707106 -0.707107 0.000000
vn 0.706007 -0.706008 -0.055736
vn 0.706007 0.706008 -0.055736
vn 0.706007 -0.706008 -0.055736
vn -0.706007 -0.706008 -0.055736
vn -0.706007 0.706008 -0.055736
vn -0.028181 -0.706826 -0.706826
vn 0.000000 -0.707107 -0.707107
vn 0.000000 -0.707107 0.707107
vn -0.028181 -0.706826 0.706826
vn -0.028181 -0.706826 0.706826
vn 0.000000 -0.707107 0.707107
vn 0.000000 0.707107 0.707107
vn -0.028181 0.706826 0.706826
vn -0.028181 0.706826 0.706826
vn 0.000000 0.707107 0.707107
vn 0.000000 0.707107 -0.707107
vn -0.028181 0.706826 -0.706826
vn -0.028181 0.706826 -0.706826
vn 0.000000 0.707107 -0.707107
vn 0.000000 -0.707107 -0.707107
vn -0.028181 -0.706826 -0.706826
vn -0.028181 0.706826 -0.706826
vn -0.028181 -0.706826 -0.706826
vn -0.028181 -0.706826 0.706826
vn -0.028181 0.706826 0.706826
vn -0.028181 -0.706826 -0.706826
vn 0.000000 -0.707107 -0.707107
vn 0.000000 -0.707107 0.707107
vn -0.028181 -0.706826 0.706826
vn -0.028181 -0.706826 0.706826
vn 0.000000 -0.707107 0.707107
vn 0.000000 0.707107 0.707107
vn -0.028181 0.706826 0.706826
vn -0.028181 0.706826 0.706826
vn 0.000000 0.707107 0.707107
vn 0.000000 0.707107 -0.707107
vn -0.028181 0.706826 -0.706826
vn -0.028181 0.706826 -0.706826
vn 0.000000 0.707107 -0.707107
vn 0.000000 -0.707107 -0.707107
vn -0.028181 -0.706826 -0.706826
vn -0.028181 0.706826 -0.706826
vn -0.028181 -0.706826 -0.706826
vn -0.028181 -0.706826 0.706826
vn -0.028181 0.706826 0.706826
vn 0.000000 -0.707107 0.707107
vn 0.000000 -0.707107 0.707107
vn 0.000000 0.000000 1.000000
vn 0.000000 0.000000 1.000000
vn 0.000000 0.000000 -1.000000
vn 0.000000 0.000000 -1.000000
vn 0.000000 -0.707107 -0.707107
vn 0.000000 -0.707107 -0.707107
vn 0.000000 -0.707107 -0.707107
vn 0.000000 -0.707107 -0.707107
vn 0.000000 -0.707107 0.707107
vn 0.000000 -0.707107 0.707107
vn 0.000000 -0.707107 0.707107
vn 0.000000 -0.707107 0.707107
vn 0.000000 0.000000 1.000000
vn 0.000000 0.000000 1.000000
vn 0.000000 0.000000 -1.000000
vn 0.000000 0.000000 -1.000000
vn 0.000000 -0.707107 -0.707107
vn 0.000000 -0.707107 -0.707107
vn 0.000000 -0.707107 -0.707107
vn 0.000000 -0.707107 -0.707107
vn 0.000000 -0.707107 0.707107
vn 0.000000 -0.707107 0.707107
vn -0.707107 -0.707107 0.000000
vn -0.707107 -0.707107 0.000000
vn -1.000000 0.000000 0.000000
vn -1.000000 0.000000 0.000000
vn 1.000000 0.000000 0.000000
vn 1.000000 0.000000 0.000000
vn 0.707107 -0.707107 0.000000
vn 0.707107 -0.707107 0.000000
vn 0.707107 -0.707107 0.000000
vn 0.707107 -0.707107 0.000000
vn -0.707107 -0.707107 0.000000
vn -0.707107 -0.707107 0.000000
vn -0.707105 -0.707108 0.000000
vn -0.707105 -0.707108 0.000000
vn -1.000000 0.000000 0.000000
vn -1.000000 0.000000 0.000000
vn 1.000000 0.000000 0.000000
vn 1.000000 0.000000 0.000000
vn 0.707105 -0.707108 0.000000
vn 0.707105 -0.707108 0.000000
vn 0.707105 -0.707108 0.000000
vn 0.707105 -0.707108 0.000000
vn -0.707105 -0.707108 0.000000
vn -0.707105 -0.707108 0.000000
s off
g Table_1:Table_LP2
usemtl initialShadingGroup
f 1/1/1 2/2/2 4/3/3 3/4/4
f 3/5/5 4/6/6 6/7/7 5/8/8
f 5/8/9 6/7/10 8/9/11 7/10/12
f 7/10/13 8/9/14 2/2/15 1/1/16
f 7/11/17 1/12/18 3/5/19 5/8/20
f 9/13/21 10/14/22 12/15/23 11/16/24
f 11/16/25 12/15/26 14/17/27 13/18/28
f 13/18/29 14/17/30 16/19/31 15/20/32
f 15/20/33 16/19/34 10/21/35 9/22/36
f 10/23/37 16/24/38 14/17/39 12/15/40
f 15/25/41 9/26/42 11/16/43 13/18/44
f 17/27/45 18/28/46 20/29/47 19/30/48
f 19/31/49 20/32/50 22/33/51 21/34/52
f 21/34/53 22/33/54 24/35/55 23/36/56
f 23/36/57 24/35/58 18/28/59 17/27/60
f 23/37/61 17/38/62 19/31/63 21/34/64
f 25/39/65 26/40/66 28/41/67 27/42/68
f 27/43/69 28/44/70 30/45/71 29/46/72
f 29/46/73 30/45/74 32/47/75 31/48/76
f 31/48/77 32/47/78 26/40/79 25/39/80
f 31/49/81 25/50/82 27/43/83 29/46/84
f 33/51/85 34/52/86 36/53/87 35/54/88
f 35/55/89 36/56/90 38/57/91 37/58/92
f 37/58/93 38/57/94 40/59/95 39/60/96
f 39/60/97 40/59/98 34/52/99 33/51/100
f 39/61/101 33/62/102 35/55/103 37/58/104
f 41/63/105 42/64/106 44/65/107 43/66/108
f 43/67/109 44/68/110 46/69/111 45/70/112
f 45/70/113 46/69/114 48/71/115 47/72/116
f 47/72/117 48/71/118 42/64/119 41/63/120
f 47/73/121 41/74/122 43/67/123 45/70/124
f 49/75/125 50/76/126 52/77/127 51/78/128
f 51/79/129 52/80/130 54/81/131 53/82/132
f 53/82/133 54/81/134 56/83/135 55/84/136
f 55/84/137 56/83/138 50/76/139 49/75/140
f 55/85/141 49/86/142 51/79/143 53/82/144
f 57/87/145 58/88/146 60/89/147 59/90/148
f 59/91/149 60/92/150 62/93/151 61/94/152
f 61/94/153 62/93/154 64/95/155 63/96/156
f 63/96/157 64/95/158 58/88/159 57/87/160
f 63/97/161 57/98/162 59/91/163 61/94/164
f 65/99/165 66/100/166 68/101/167 67/102/168
f 67/103/169 68/104/170 70/105/171 69/106/172
f 69/106/173 70/105/174 72/107/175 71/108/176
f 71/108/177 72/107/178 66/100/179 65/99/180
f 71/109/181 65/110/182 67/103/183 69/106/184
f 73/111/185 74/112/186 76/113/187 75/114/188
f 77/115/189 78/116/190 80/117/191 79/118/192
f 79/118/193 80/117/194 74/112/195 73/111/196
f 81/119/197 82/120/198 84/121/199 83/122/200
f 85/123/201 86/124/202 88/125/203 87/126/204
f 87/126/205 88/125/206 82/120/207 81/119/208
f 89/127/209 90/128/210 92/129/211 91/130/212
f 93/131/213 94/132/214 96/133/215 95/134/216
f 95/134/217 96/133/218 90/128/219 89/127/220
f 97/135/221 98/136/222 100/137/223 99/138/224
f 101/139/225 102/140/226 104/141/227 103/142/228
f 103/142/229 104/141/230 98/136/231 97/135/232
